<svg xmlns="http://www.w3.org/2000/svg"><symbol id="bubble" viewBox="0 0 256 256"><path d="M128 1l110 63.5v127L128 255 18 191.5v-127zM68.5 180.1l10-5.2h98.7l10 5.2a2.2 2.2 0 0 0 2.7-.6l4.8-6.9a2.2 2.2 0 0 0 0-2.5l-17.1-20.4h10.6a2 2 0 0 0 2.1-2.1v-15a2 2 0 0 0-2.1-2.1h-12a51.2 51.2 0 0 0 2.3-15.9 49.3 49.3 0 0 0-98.7 0 58.3 58.3 0 0 0 2.3 15.9H70a2 2 0 0 0-2.1 2.1v15a2 2 0 0 0 2.1 2.1h8.6l-17.4 20.4a2.2 2.2 0 0 0-.2 2.5l4.8 6.9a2.3 2.3 0 0 0 2.7.6zm35-23.2l-35.2 18.7-2.9-4.2 18.4-21.7h13.7zm82.6-22.3v10.8h-114v-10.7zM84 114.6a45.2 45.2 0 0 1 90.3 0 50.4 50.4 0 0 1-2.5 15.9H86.5c-2.1-4.8-2.5-10.4-2.5-15.9zm31.1 56.1H86.7l19.8-10.4zm38-21.1l-17.5 21.1h-15l-17.6-21zm16.3 21.1h-28.5l8.6-10.4zm21.3.8l-2.9 4-35.6-18.5 6.3-7.3h13.8z"/></symbol><symbol id="dome" viewBox="0 0 256 256"><path d="M128 1l110 63.5v127L128 255 18 191.5v-127zm60.3 173.9a2 2 0 0 0 2.1-2.1v-25.2h27.5a2.1 2.1 0 1 0 0-4.2h-15.7v-13.5a2 2 0 0 0-2.1-2.1H192c-6.9-28.8-32.5-50.5-63.4-50.7-.4-.2-.6-.2-.8 0A66.1 66.1 0 0 0 64 127.8h-8.2a2 2 0 0 0-2.1 2.1v13.6H38.1a2.1 2.1 0 0 0 0 4.2h27.5v25.2a2 2 0 0 0 2.1 2.1zm9.8-43v11.5H57.9v-11.5zm-107.5-4.1H68.3c6.5-25.2 28.8-44.6 55.5-46.3zm35.2 19.8v23.2h-56v-23.2zm0-19.8h-30l30-42.1zm61.7 0h-57.4V81.3a62 62 0 0 1 57.5 46.5zm-48.2 19.8v23.2h-9.4v-23.2zm46.7 0v23.2h-42.4v-23.2z"/></symbol><symbol id="stilt" viewBox="0 0 256 256"><path d="M128 1l110 63.5v127L128 255 18 191.5v-127zm63.8 173.9a2.1 2.1 0 1 0 0-4.2h-10.4v-13.1h10.4a2 2 0 0 0 2.1-2.1v-41.1a2 2 0 0 0-2.1-2.1h-13.7c-1-29.6-23.2-45.9-50.1-45.9s-49 16.3-50.1 45.9H64.2a2 2 0 0 0-2.1 2.1v41.1a2 2 0 0 0 2.1 2.1h10.4v13.1H64.2a2.1 2.1 0 1 0 0 4.2zm-2.1-58.4v36.9H66.2v-36.9zm-97.6 41.1v13.1H78.8v-13.1zm35.9-87c24.4 0 44.8 14.8 45.9 41.7H82.1c1-26.9 21.5-41.7 45.9-41.7zm-10.8 87v13.1H96.3v-13.1zm17.5 0v13.1h-13.4v-13.1zm45.3-16.3a2.2 2.2 0 0 0-2.1-2.1H127a2.1 2.1 0 1 0 0 4.2h50.9a2.2 2.2 0 0 0 2-2.1zm-20.2 16.3v13.1h-21v-13.1zm17.5 0v13.1h-13.4v-13.1z"/></symbol></svg>